<svg width="1168" height="440" viewBox="0 0 1168 440" fill="none" xmlns="http://www.w3.org/2000/svg">
<rect y="15" width="1120" height="425" rx="24" fill="url(#paint0_linear)"/>
<g opacity="0.26">
<mask id="mask0" mask-type="alpha" maskUnits="userSpaceOnUse" x="1036" y="0" width="11" height="11">
<path d="M1041.23 10.425C1044.12 10.425 1046.46 8.09121 1046.46 5.21245C1046.46 2.33368 1044.12 0 1041.23 0C1038.34 0 1036 2.33368 1036 5.21245C1036 8.09121 1038.34 10.425 1041.23 10.425Z" fill="url(#paint1_linear)"/>
</mask>
<g mask="url(#mask0)">
<path d="M1041.23 10.425C1044.12 10.425 1046.46 8.09121 1046.46 5.21245C1046.46 2.33368 1044.12 0 1041.23 0C1038.34 0 1036 2.33368 1036 5.21245C1036 8.09121 1038.34 10.425 1041.23 10.425Z" fill="url(#paint2_linear)"/>
</g>
<mask id="mask1" mask-type="alpha" maskUnits="userSpaceOnUse" x="1066" y="0" width="11" height="11">
<path d="M1071.51 10.425C1074.4 10.425 1076.74 8.09121 1076.74 5.21245C1076.74 2.33368 1074.4 0 1071.51 0C1068.62 0 1066.28 2.33368 1066.28 5.21245C1066.28 8.09121 1068.62 10.425 1071.51 10.425Z" fill="url(#paint3_linear)"/>
</mask>
<g mask="url(#mask1)">
<path d="M1071.51 10.425C1074.4 10.425 1076.74 8.09121 1076.74 5.21245C1076.74 2.33368 1074.4 0 1071.51 0C1068.62 0 1066.28 2.33368 1066.28 5.21245C1066.28 8.09121 1068.62 10.425 1071.51 10.425Z" fill="url(#paint4_linear)"/>
</g>
<mask id="mask2" mask-type="alpha" maskUnits="userSpaceOnUse" x="1096" y="0" width="12" height="11">
<path d="M1101.79 10.425C1104.68 10.425 1107.02 8.09121 1107.02 5.21245C1107.02 2.33368 1104.68 0 1101.79 0C1098.9 0 1096.56 2.33368 1096.56 5.21245C1096.56 8.09121 1098.9 10.425 1101.79 10.425Z" fill="url(#paint5_linear)"/>
</mask>
<g mask="url(#mask2)">
<path d="M1101.79 10.425C1104.68 10.425 1107.02 8.09121 1107.02 5.21245C1107.02 2.33368 1104.68 0 1101.79 0C1098.9 0 1096.56 2.33368 1096.56 5.21245C1096.56 8.09121 1098.9 10.425 1101.79 10.425Z" fill="url(#paint6_linear)"/>
</g>
<mask id="mask3" mask-type="alpha" maskUnits="userSpaceOnUse" x="1126" y="0" width="12" height="11">
<path d="M1132.07 10.425C1134.96 10.425 1137.3 8.09121 1137.3 5.21245C1137.3 2.33368 1134.96 0 1132.07 0C1129.18 0 1126.84 2.33368 1126.84 5.21245C1126.84 8.09121 1129.18 10.425 1132.07 10.425Z" fill="url(#paint7_linear)"/>
</mask>
<g mask="url(#mask3)">
<path d="M1132.07 10.425C1134.96 10.425 1137.3 8.09121 1137.3 5.21245C1137.3 2.33368 1134.96 0 1132.07 0C1129.18 0 1126.84 2.33368 1126.84 5.21245C1126.84 8.09121 1129.18 10.425 1132.07 10.425Z" fill="url(#paint8_linear)"/>
</g>
<mask id="mask4" mask-type="alpha" maskUnits="userSpaceOnUse" x="1157" y="0" width="11" height="11">
<path d="M1162.35 10.425C1165.24 10.425 1167.58 8.09121 1167.58 5.21245C1167.58 2.33368 1165.24 0 1162.35 0C1159.47 0 1157.12 2.33368 1157.12 5.21245C1157.12 8.09121 1159.47 10.425 1162.35 10.425Z" fill="url(#paint9_linear)"/>
</mask>
<g mask="url(#mask4)">
<path d="M1162.35 10.425C1165.24 10.425 1167.58 8.09121 1167.58 5.21245C1167.58 2.33368 1165.24 0 1162.35 0C1159.47 0 1157.12 2.33368 1157.12 5.21245C1157.12 8.09121 1159.47 10.425 1162.35 10.425Z" fill="url(#paint10_linear)"/>
</g>
<mask id="mask5" mask-type="alpha" maskUnits="userSpaceOnUse" x="1036" y="26" width="11" height="11">
<path d="M1041.23 36.5958C1044.12 36.5958 1046.46 34.2621 1046.46 31.3833C1046.46 28.5046 1044.12 26.1709 1041.23 26.1709C1038.34 26.1709 1036 28.5046 1036 31.3833C1036 34.2621 1038.34 36.5958 1041.23 36.5958Z" fill="url(#paint11_linear)"/>
</mask>
<g mask="url(#mask5)">
<path d="M1041.23 36.5958C1044.12 36.5958 1046.46 34.2621 1046.46 31.3833C1046.46 28.5046 1044.12 26.1709 1041.23 26.1709C1038.34 26.1709 1036 28.5046 1036 31.3833C1036 34.2621 1038.34 36.5958 1041.23 36.5958Z" fill="url(#paint12_linear)"/>
</g>
<mask id="mask6" mask-type="alpha" maskUnits="userSpaceOnUse" x="1066" y="26" width="11" height="11">
<path d="M1071.51 36.5958C1074.4 36.5958 1076.74 34.2621 1076.74 31.3833C1076.74 28.5046 1074.4 26.1709 1071.51 26.1709C1068.62 26.1709 1066.28 28.5046 1066.28 31.3833C1066.28 34.2621 1068.62 36.5958 1071.51 36.5958Z" fill="url(#paint13_linear)"/>
</mask>
<g mask="url(#mask6)">
<path d="M1071.51 36.5958C1074.4 36.5958 1076.74 34.2621 1076.74 31.3833C1076.74 28.5046 1074.4 26.1709 1071.51 26.1709C1068.62 26.1709 1066.28 28.5046 1066.28 31.3833C1066.28 34.2621 1068.62 36.5958 1071.51 36.5958Z" fill="url(#paint14_linear)"/>
</g>
<mask id="mask7" mask-type="alpha" maskUnits="userSpaceOnUse" x="1096" y="26" width="12" height="11">
<path d="M1101.79 36.5958C1104.68 36.5958 1107.02 34.2621 1107.02 31.3833C1107.02 28.5046 1104.68 26.1709 1101.79 26.1709C1098.9 26.1709 1096.56 28.5046 1096.56 31.3833C1096.56 34.2621 1098.9 36.5958 1101.79 36.5958Z" fill="url(#paint15_linear)"/>
</mask>
<g mask="url(#mask7)">
<path d="M1101.79 36.5958C1104.68 36.5958 1107.02 34.2621 1107.02 31.3833C1107.02 28.5046 1104.68 26.1709 1101.79 26.1709C1098.9 26.1709 1096.56 28.5046 1096.56 31.3833C1096.56 34.2621 1098.9 36.5958 1101.79 36.5958Z" fill="url(#paint16_linear)"/>
</g>
<mask id="mask8" mask-type="alpha" maskUnits="userSpaceOnUse" x="1126" y="26" width="12" height="11">
<path d="M1132.07 36.5958C1134.96 36.5958 1137.3 34.2621 1137.3 31.3833C1137.3 28.5046 1134.96 26.1709 1132.07 26.1709C1129.18 26.1709 1126.84 28.5046 1126.84 31.3833C1126.84 34.2621 1129.18 36.5958 1132.07 36.5958Z" fill="url(#paint17_linear)"/>
</mask>
<g mask="url(#mask8)">
<path d="M1132.07 36.5958C1134.96 36.5958 1137.3 34.2621 1137.3 31.3833C1137.3 28.5046 1134.96 26.1709 1132.07 26.1709C1129.18 26.1709 1126.84 28.5046 1126.84 31.3833C1126.84 34.2621 1129.18 36.5958 1132.07 36.5958Z" fill="url(#paint18_linear)"/>
</g>
<mask id="mask9" mask-type="alpha" maskUnits="userSpaceOnUse" x="1157" y="26" width="11" height="11">
<path d="M1162.35 36.5958C1165.24 36.5958 1167.58 34.2621 1167.58 31.3833C1167.58 28.5046 1165.24 26.1709 1162.35 26.1709C1159.47 26.1709 1157.12 28.5046 1157.12 31.3833C1157.12 34.2621 1159.47 36.5958 1162.35 36.5958Z" fill="url(#paint19_linear)"/>
</mask>
<g mask="url(#mask9)">
<path d="M1162.35 36.5958C1165.24 36.5958 1167.58 34.2621 1167.58 31.3833C1167.58 28.5046 1165.24 26.1709 1162.35 26.1709C1159.47 26.1709 1157.12 28.5046 1157.12 31.3833C1157.12 34.2621 1159.47 36.5958 1162.35 36.5958Z" fill="url(#paint20_linear)"/>
</g>
<mask id="mask10" mask-type="alpha" maskUnits="userSpaceOnUse" x="1036" y="52" width="11" height="11">
<path d="M1041.23 62.7126C1044.12 62.7126 1046.46 60.3789 1046.46 57.5001C1046.46 54.6213 1044.12 52.2876 1041.23 52.2876C1038.34 52.2876 1036 54.6213 1036 57.5001C1036 60.3789 1038.34 62.7126 1041.23 62.7126Z" fill="url(#paint21_linear)"/>
</mask>
<g mask="url(#mask10)">
<path d="M1041.23 62.7126C1044.12 62.7126 1046.46 60.3789 1046.46 57.5001C1046.46 54.6213 1044.12 52.2876 1041.23 52.2876C1038.34 52.2876 1036 54.6213 1036 57.5001C1036 60.3789 1038.34 62.7126 1041.23 62.7126Z" fill="url(#paint22_linear)"/>
</g>
<mask id="mask11" mask-type="alpha" maskUnits="userSpaceOnUse" x="1066" y="52" width="11" height="11">
<path d="M1071.51 62.7126C1074.4 62.7126 1076.74 60.3789 1076.74 57.5001C1076.74 54.6213 1074.4 52.2876 1071.51 52.2876C1068.62 52.2876 1066.28 54.6213 1066.28 57.5001C1066.28 60.3789 1068.62 62.7126 1071.51 62.7126Z" fill="url(#paint23_linear)"/>
</mask>
<g mask="url(#mask11)">
<path d="M1071.51 62.7126C1074.4 62.7126 1076.74 60.3789 1076.74 57.5001C1076.74 54.6213 1074.4 52.2876 1071.51 52.2876C1068.62 52.2876 1066.28 54.6213 1066.28 57.5001C1066.28 60.3789 1068.62 62.7126 1071.51 62.7126Z" fill="url(#paint24_linear)"/>
</g>
<mask id="mask12" mask-type="alpha" maskUnits="userSpaceOnUse" x="1096" y="52" width="12" height="11">
<path d="M1101.79 62.7126C1104.68 62.7126 1107.02 60.3789 1107.02 57.5001C1107.02 54.6213 1104.68 52.2876 1101.79 52.2876C1098.9 52.2876 1096.56 54.6213 1096.56 57.5001C1096.56 60.3789 1098.9 62.7126 1101.79 62.7126Z" fill="url(#paint25_linear)"/>
</mask>
<g mask="url(#mask12)">
<path d="M1101.79 62.7126C1104.68 62.7126 1107.02 60.3789 1107.02 57.5001C1107.02 54.6213 1104.68 52.2876 1101.79 52.2876C1098.9 52.2876 1096.56 54.6213 1096.56 57.5001C1096.56 60.3789 1098.9 62.7126 1101.79 62.7126Z" fill="url(#paint26_linear)"/>
</g>
<mask id="mask13" mask-type="alpha" maskUnits="userSpaceOnUse" x="1126" y="52" width="12" height="11">
<path d="M1132.07 62.7126C1134.96 62.7126 1137.3 60.3789 1137.3 57.5001C1137.3 54.6213 1134.96 52.2876 1132.07 52.2876C1129.18 52.2876 1126.84 54.6213 1126.84 57.5001C1126.84 60.3789 1129.18 62.7126 1132.07 62.7126Z" fill="url(#paint27_linear)"/>
</mask>
<g mask="url(#mask13)">
<path d="M1132.07 62.7126C1134.96 62.7126 1137.3 60.3789 1137.3 57.5001C1137.3 54.6213 1134.96 52.2876 1132.07 52.2876C1129.18 52.2876 1126.84 54.6213 1126.84 57.5001C1126.84 60.3789 1129.18 62.7126 1132.07 62.7126Z" fill="url(#paint28_linear)"/>
</g>
<mask id="mask14" mask-type="alpha" maskUnits="userSpaceOnUse" x="1157" y="52" width="11" height="11">
<path d="M1162.35 62.7126C1165.24 62.7126 1167.58 60.3789 1167.58 57.5001C1167.58 54.6213 1165.24 52.2876 1162.35 52.2876C1159.47 52.2876 1157.12 54.6213 1157.12 57.5001C1157.12 60.3789 1159.47 62.7126 1162.35 62.7126Z" fill="url(#paint29_linear)"/>
</mask>
<g mask="url(#mask14)">
<path d="M1162.35 62.7126C1165.24 62.7126 1167.58 60.3789 1167.58 57.5001C1167.58 54.6213 1165.24 52.2876 1162.35 52.2876C1159.47 52.2876 1157.12 54.6213 1157.12 57.5001C1157.12 60.3789 1159.47 62.7126 1162.35 62.7126Z" fill="url(#paint30_linear)"/>
</g>
<mask id="mask15" mask-type="alpha" maskUnits="userSpaceOnUse" x="1036" y="78" width="11" height="11">
<path d="M1041.23 88.8835C1044.12 88.8835 1046.46 86.5497 1046.46 83.6709C1046.46 80.7922 1044.12 78.4585 1041.23 78.4585C1038.34 78.4585 1036 80.7922 1036 83.6709C1036 86.5497 1038.34 88.8835 1041.23 88.8835Z" fill="url(#paint31_linear)"/>
</mask>
<g mask="url(#mask15)">
<path d="M1041.23 88.8835C1044.12 88.8835 1046.46 86.5497 1046.46 83.6709C1046.46 80.7922 1044.12 78.4585 1041.23 78.4585C1038.34 78.4585 1036 80.7922 1036 83.6709C1036 86.5497 1038.34 88.8835 1041.23 88.8835Z" fill="url(#paint32_linear)"/>
</g>
<mask id="mask16" mask-type="alpha" maskUnits="userSpaceOnUse" x="1066" y="78" width="11" height="11">
<path d="M1071.51 88.8835C1074.4 88.8835 1076.74 86.5497 1076.74 83.6709C1076.74 80.7922 1074.4 78.4585 1071.51 78.4585C1068.62 78.4585 1066.28 80.7922 1066.28 83.6709C1066.28 86.5497 1068.62 88.8835 1071.51 88.8835Z" fill="url(#paint33_linear)"/>
</mask>
<g mask="url(#mask16)">
<path d="M1071.51 88.8835C1074.4 88.8835 1076.74 86.5497 1076.74 83.6709C1076.74 80.7922 1074.4 78.4585 1071.51 78.4585C1068.62 78.4585 1066.28 80.7922 1066.28 83.6709C1066.28 86.5497 1068.62 88.8835 1071.51 88.8835Z" fill="url(#paint34_linear)"/>
</g>
<mask id="mask17" mask-type="alpha" maskUnits="userSpaceOnUse" x="1096" y="78" width="12" height="11">
<path d="M1101.79 88.8835C1104.68 88.8835 1107.02 86.5497 1107.02 83.6709C1107.02 80.7922 1104.68 78.4585 1101.79 78.4585C1098.9 78.4585 1096.56 80.7922 1096.56 83.6709C1096.56 86.5497 1098.9 88.8835 1101.79 88.8835Z" fill="url(#paint35_linear)"/>
</mask>
<g mask="url(#mask17)">
<path d="M1101.79 88.8835C1104.68 88.8835 1107.02 86.5497 1107.02 83.6709C1107.02 80.7922 1104.68 78.4585 1101.79 78.4585C1098.9 78.4585 1096.56 80.7922 1096.56 83.6709C1096.56 86.5497 1098.9 88.8835 1101.79 88.8835Z" fill="url(#paint36_linear)"/>
</g>
<mask id="mask18" mask-type="alpha" maskUnits="userSpaceOnUse" x="1126" y="78" width="12" height="11">
<path d="M1132.07 88.8835C1134.96 88.8835 1137.3 86.5497 1137.3 83.6709C1137.3 80.7922 1134.96 78.4585 1132.07 78.4585C1129.18 78.4585 1126.84 80.7922 1126.84 83.6709C1126.84 86.5497 1129.18 88.8835 1132.07 88.8835Z" fill="url(#paint37_linear)"/>
</mask>
<g mask="url(#mask18)">
<path d="M1132.07 88.8835C1134.96 88.8835 1137.3 86.5497 1137.3 83.6709C1137.3 80.7922 1134.96 78.4585 1132.07 78.4585C1129.18 78.4585 1126.84 80.7922 1126.84 83.6709C1126.84 86.5497 1129.18 88.8835 1132.07 88.8835Z" fill="url(#paint38_linear)"/>
</g>
<mask id="mask19" mask-type="alpha" maskUnits="userSpaceOnUse" x="1157" y="78" width="11" height="11">
<path d="M1162.35 88.8835C1165.24 88.8835 1167.58 86.5497 1167.58 83.6709C1167.58 80.7922 1165.24 78.4585 1162.35 78.4585C1159.47 78.4585 1157.12 80.7922 1157.12 83.6709C1157.12 86.5497 1159.47 88.8835 1162.35 88.8835Z" fill="url(#paint39_linear)"/>
</mask>
<g mask="url(#mask19)">
<path d="M1162.35 88.8835C1165.24 88.8835 1167.58 86.5497 1167.58 83.6709C1167.58 80.7922 1165.24 78.4585 1162.35 78.4585C1159.47 78.4585 1157.12 80.7922 1157.12 83.6709C1157.12 86.5497 1159.47 88.8835 1162.35 88.8835Z" fill="url(#paint40_linear)"/>
</g>
<mask id="mask20" mask-type="alpha" maskUnits="userSpaceOnUse" x="1036" y="104" width="11" height="11">
<path d="M1041.23 115C1044.12 115 1046.46 112.666 1046.46 109.787C1046.46 106.909 1044.12 104.575 1041.23 104.575C1038.34 104.575 1036 106.909 1036 109.787C1036 112.666 1038.34 115 1041.23 115Z" fill="url(#paint41_linear)"/>
</mask>
<g mask="url(#mask20)">
<path d="M1041.23 115C1044.12 115 1046.46 112.666 1046.46 109.787C1046.46 106.909 1044.12 104.575 1041.23 104.575C1038.34 104.575 1036 106.909 1036 109.787C1036 112.666 1038.34 115 1041.23 115Z" fill="url(#paint42_linear)"/>
</g>
<mask id="mask21" mask-type="alpha" maskUnits="userSpaceOnUse" x="1066" y="104" width="11" height="11">
<path d="M1071.51 115C1074.4 115 1076.74 112.666 1076.74 109.787C1076.74 106.909 1074.4 104.575 1071.51 104.575C1068.62 104.575 1066.28 106.909 1066.28 109.787C1066.28 112.666 1068.62 115 1071.51 115Z" fill="url(#paint43_linear)"/>
</mask>
<g mask="url(#mask21)">
<path d="M1071.51 115C1074.4 115 1076.74 112.666 1076.74 109.787C1076.74 106.909 1074.4 104.575 1071.51 104.575C1068.62 104.575 1066.28 106.909 1066.28 109.787C1066.28 112.666 1068.62 115 1071.51 115Z" fill="url(#paint44_linear)"/>
</g>
<mask id="mask22" mask-type="alpha" maskUnits="userSpaceOnUse" x="1096" y="104" width="12" height="11">
<path d="M1101.79 115C1104.68 115 1107.02 112.666 1107.02 109.787C1107.02 106.909 1104.68 104.575 1101.79 104.575C1098.9 104.575 1096.56 106.909 1096.56 109.787C1096.56 112.666 1098.9 115 1101.79 115Z" fill="url(#paint45_linear)"/>
</mask>
<g mask="url(#mask22)">
<path d="M1101.79 115C1104.68 115 1107.02 112.666 1107.02 109.787C1107.02 106.909 1104.68 104.575 1101.79 104.575C1098.9 104.575 1096.56 106.909 1096.56 109.787C1096.56 112.666 1098.9 115 1101.79 115Z" fill="url(#paint46_linear)"/>
</g>
<mask id="mask23" mask-type="alpha" maskUnits="userSpaceOnUse" x="1126" y="104" width="12" height="11">
<path d="M1132.07 115C1134.96 115 1137.3 112.666 1137.3 109.787C1137.3 106.909 1134.96 104.575 1132.07 104.575C1129.18 104.575 1126.84 106.909 1126.84 109.787C1126.84 112.666 1129.18 115 1132.07 115Z" fill="url(#paint47_linear)"/>
</mask>
<g mask="url(#mask23)">
<path d="M1132.07 115C1134.96 115 1137.3 112.666 1137.3 109.787C1137.3 106.909 1134.96 104.575 1132.07 104.575C1129.18 104.575 1126.84 106.909 1126.84 109.787C1126.84 112.666 1129.18 115 1132.07 115Z" fill="url(#paint48_linear)"/>
</g>
<mask id="mask24" mask-type="alpha" maskUnits="userSpaceOnUse" x="1157" y="104" width="11" height="11">
<path d="M1162.35 115C1165.24 115 1167.58 112.666 1167.58 109.787C1167.58 106.909 1165.24 104.575 1162.35 104.575C1159.47 104.575 1157.12 106.909 1157.12 109.787C1157.12 112.666 1159.47 115 1162.35 115Z" fill="url(#paint49_linear)"/>
</mask>
<g mask="url(#mask24)">
<path d="M1162.35 115C1165.24 115 1167.58 112.666 1167.58 109.787C1167.58 106.909 1165.24 104.575 1162.35 104.575C1159.47 104.575 1157.12 106.909 1157.12 109.787C1157.12 112.666 1159.47 115 1162.35 115Z" fill="url(#paint50_linear)"/>
</g>
</g>
<defs>
<linearGradient id="paint0_linear" x1="1000.82" y1="49.8468" x2="914.548" y2="474.132" gradientUnits="userSpaceOnUse">
<stop stop-color="#67C3F3"/>
<stop offset="1" stop-color="#5A98F2"/>
</linearGradient>
<linearGradient id="paint1_linear" x1="1091" y1="131.134" x2="1019.59" y2="-50.67" gradientUnits="userSpaceOnUse">
<stop stop-color="white"/>
<stop offset="1" stop-color="white"/>
</linearGradient>
<linearGradient id="paint2_linear" x1="1091" y1="131.134" x2="1019.59" y2="-50.67" gradientUnits="userSpaceOnUse">
<stop stop-color="white"/>
<stop offset="1" stop-color="white"/>
</linearGradient>
<linearGradient id="paint3_linear" x1="1121.28" y1="131.134" x2="1049.88" y2="-50.67" gradientUnits="userSpaceOnUse">
<stop stop-color="white"/>
<stop offset="1" stop-color="white"/>
</linearGradient>
<linearGradient id="paint4_linear" x1="1121.28" y1="131.134" x2="1049.88" y2="-50.67" gradientUnits="userSpaceOnUse">
<stop stop-color="white"/>
<stop offset="1" stop-color="white"/>
</linearGradient>
<linearGradient id="paint5_linear" x1="1151.56" y1="131.134" x2="1080.16" y2="-50.67" gradientUnits="userSpaceOnUse">
<stop stop-color="white"/>
<stop offset="1" stop-color="white"/>
</linearGradient>
<linearGradient id="paint6_linear" x1="1151.56" y1="131.134" x2="1080.16" y2="-50.67" gradientUnits="userSpaceOnUse">
<stop stop-color="white"/>
<stop offset="1" stop-color="white"/>
</linearGradient>
<linearGradient id="paint7_linear" x1="1181.84" y1="131.134" x2="1110.44" y2="-50.67" gradientUnits="userSpaceOnUse">
<stop stop-color="white"/>
<stop offset="1" stop-color="white"/>
</linearGradient>
<linearGradient id="paint8_linear" x1="1181.84" y1="131.134" x2="1110.44" y2="-50.67" gradientUnits="userSpaceOnUse">
<stop stop-color="white"/>
<stop offset="1" stop-color="white"/>
</linearGradient>
<linearGradient id="paint9_linear" x1="1212.12" y1="131.134" x2="1140.72" y2="-50.67" gradientUnits="userSpaceOnUse">
<stop stop-color="white"/>
<stop offset="1" stop-color="white"/>
</linearGradient>
<linearGradient id="paint10_linear" x1="1212.12" y1="131.134" x2="1140.72" y2="-50.67" gradientUnits="userSpaceOnUse">
<stop stop-color="white"/>
<stop offset="1" stop-color="white"/>
</linearGradient>
<linearGradient id="paint11_linear" x1="1091" y1="157.303" x2="1019.6" y2="-24.4991" gradientUnits="userSpaceOnUse">
<stop stop-color="white"/>
<stop offset="1" stop-color="white"/>
</linearGradient>
<linearGradient id="paint12_linear" x1="1091" y1="157.303" x2="1019.6" y2="-24.4991" gradientUnits="userSpaceOnUse">
<stop stop-color="white"/>
<stop offset="1" stop-color="white"/>
</linearGradient>
<linearGradient id="paint13_linear" x1="1121.28" y1="157.303" x2="1049.88" y2="-24.4991" gradientUnits="userSpaceOnUse">
<stop stop-color="white"/>
<stop offset="1" stop-color="white"/>
</linearGradient>
<linearGradient id="paint14_linear" x1="1121.28" y1="157.303" x2="1049.88" y2="-24.4991" gradientUnits="userSpaceOnUse">
<stop stop-color="white"/>
<stop offset="1" stop-color="white"/>
</linearGradient>
<linearGradient id="paint15_linear" x1="1151.56" y1="157.303" x2="1080.16" y2="-24.4991" gradientUnits="userSpaceOnUse">
<stop stop-color="white"/>
<stop offset="1" stop-color="white"/>
</linearGradient>
<linearGradient id="paint16_linear" x1="1151.56" y1="157.303" x2="1080.16" y2="-24.4991" gradientUnits="userSpaceOnUse">
<stop stop-color="white"/>
<stop offset="1" stop-color="white"/>
</linearGradient>
<linearGradient id="paint17_linear" x1="1181.84" y1="157.303" x2="1110.44" y2="-24.4991" gradientUnits="userSpaceOnUse">
<stop stop-color="white"/>
<stop offset="1" stop-color="white"/>
</linearGradient>
<linearGradient id="paint18_linear" x1="1181.84" y1="157.303" x2="1110.44" y2="-24.4991" gradientUnits="userSpaceOnUse">
<stop stop-color="white"/>
<stop offset="1" stop-color="white"/>
</linearGradient>
<linearGradient id="paint19_linear" x1="1212.12" y1="157.303" x2="1140.72" y2="-24.4991" gradientUnits="userSpaceOnUse">
<stop stop-color="white"/>
<stop offset="1" stop-color="white"/>
</linearGradient>
<linearGradient id="paint20_linear" x1="1212.12" y1="157.303" x2="1140.72" y2="-24.4991" gradientUnits="userSpaceOnUse">
<stop stop-color="white"/>
<stop offset="1" stop-color="white"/>
</linearGradient>
<linearGradient id="paint21_linear" x1="1091" y1="183.421" x2="1019.59" y2="1.61761" gradientUnits="userSpaceOnUse">
<stop stop-color="white"/>
<stop offset="1" stop-color="white"/>
</linearGradient>
<linearGradient id="paint22_linear" x1="1091" y1="183.421" x2="1019.59" y2="1.61761" gradientUnits="userSpaceOnUse">
<stop stop-color="white"/>
<stop offset="1" stop-color="white"/>
</linearGradient>
<linearGradient id="paint23_linear" x1="1121.28" y1="183.421" x2="1049.88" y2="1.61756" gradientUnits="userSpaceOnUse">
<stop stop-color="white"/>
<stop offset="1" stop-color="white"/>
</linearGradient>
<linearGradient id="paint24_linear" x1="1121.28" y1="183.421" x2="1049.88" y2="1.61756" gradientUnits="userSpaceOnUse">
<stop stop-color="white"/>
<stop offset="1" stop-color="white"/>
</linearGradient>
<linearGradient id="paint25_linear" x1="1151.56" y1="183.421" x2="1080.16" y2="1.61756" gradientUnits="userSpaceOnUse">
<stop stop-color="white"/>
<stop offset="1" stop-color="white"/>
</linearGradient>
<linearGradient id="paint26_linear" x1="1151.56" y1="183.421" x2="1080.16" y2="1.61756" gradientUnits="userSpaceOnUse">
<stop stop-color="white"/>
<stop offset="1" stop-color="white"/>
</linearGradient>
<linearGradient id="paint27_linear" x1="1181.84" y1="183.421" x2="1110.44" y2="1.61756" gradientUnits="userSpaceOnUse">
<stop stop-color="white"/>
<stop offset="1" stop-color="white"/>
</linearGradient>
<linearGradient id="paint28_linear" x1="1181.84" y1="183.421" x2="1110.44" y2="1.61756" gradientUnits="userSpaceOnUse">
<stop stop-color="white"/>
<stop offset="1" stop-color="white"/>
</linearGradient>
<linearGradient id="paint29_linear" x1="1212.12" y1="183.421" x2="1140.72" y2="1.61756" gradientUnits="userSpaceOnUse">
<stop stop-color="white"/>
<stop offset="1" stop-color="white"/>
</linearGradient>
<linearGradient id="paint30_linear" x1="1212.12" y1="183.421" x2="1140.72" y2="1.61756" gradientUnits="userSpaceOnUse">
<stop stop-color="white"/>
<stop offset="1" stop-color="white"/>
</linearGradient>
<linearGradient id="paint31_linear" x1="1091" y1="209.592" x2="1019.59" y2="27.7885" gradientUnits="userSpaceOnUse">
<stop stop-color="white"/>
<stop offset="1" stop-color="white"/>
</linearGradient>
<linearGradient id="paint32_linear" x1="1091" y1="209.592" x2="1019.59" y2="27.7885" gradientUnits="userSpaceOnUse">
<stop stop-color="white"/>
<stop offset="1" stop-color="white"/>
</linearGradient>
<linearGradient id="paint33_linear" x1="1121.28" y1="209.592" x2="1049.88" y2="27.7885" gradientUnits="userSpaceOnUse">
<stop stop-color="white"/>
<stop offset="1" stop-color="white"/>
</linearGradient>
<linearGradient id="paint34_linear" x1="1121.28" y1="209.592" x2="1049.88" y2="27.7885" gradientUnits="userSpaceOnUse">
<stop stop-color="white"/>
<stop offset="1" stop-color="white"/>
</linearGradient>
<linearGradient id="paint35_linear" x1="1151.56" y1="209.592" x2="1080.16" y2="27.7885" gradientUnits="userSpaceOnUse">
<stop stop-color="white"/>
<stop offset="1" stop-color="white"/>
</linearGradient>
<linearGradient id="paint36_linear" x1="1151.56" y1="209.592" x2="1080.16" y2="27.7885" gradientUnits="userSpaceOnUse">
<stop stop-color="white"/>
<stop offset="1" stop-color="white"/>
</linearGradient>
<linearGradient id="paint37_linear" x1="1181.84" y1="209.592" x2="1110.44" y2="27.7885" gradientUnits="userSpaceOnUse">
<stop stop-color="white"/>
<stop offset="1" stop-color="white"/>
</linearGradient>
<linearGradient id="paint38_linear" x1="1181.84" y1="209.592" x2="1110.44" y2="27.7885" gradientUnits="userSpaceOnUse">
<stop stop-color="white"/>
<stop offset="1" stop-color="white"/>
</linearGradient>
<linearGradient id="paint39_linear" x1="1212.12" y1="209.592" x2="1140.72" y2="27.7885" gradientUnits="userSpaceOnUse">
<stop stop-color="white"/>
<stop offset="1" stop-color="white"/>
</linearGradient>
<linearGradient id="paint40_linear" x1="1212.12" y1="209.592" x2="1140.72" y2="27.7885" gradientUnits="userSpaceOnUse">
<stop stop-color="white"/>
<stop offset="1" stop-color="white"/>
</linearGradient>
<linearGradient id="paint41_linear" x1="1091" y1="235.709" x2="1019.59" y2="53.905" gradientUnits="userSpaceOnUse">
<stop stop-color="white"/>
<stop offset="1" stop-color="white"/>
</linearGradient>
<linearGradient id="paint42_linear" x1="1091" y1="235.709" x2="1019.59" y2="53.905" gradientUnits="userSpaceOnUse">
<stop stop-color="white"/>
<stop offset="1" stop-color="white"/>
</linearGradient>
<linearGradient id="paint43_linear" x1="1121.28" y1="235.709" x2="1049.88" y2="53.9049" gradientUnits="userSpaceOnUse">
<stop stop-color="white"/>
<stop offset="1" stop-color="white"/>
</linearGradient>
<linearGradient id="paint44_linear" x1="1121.28" y1="235.709" x2="1049.88" y2="53.9049" gradientUnits="userSpaceOnUse">
<stop stop-color="white"/>
<stop offset="1" stop-color="white"/>
</linearGradient>
<linearGradient id="paint45_linear" x1="1151.56" y1="235.709" x2="1080.16" y2="53.9049" gradientUnits="userSpaceOnUse">
<stop stop-color="white"/>
<stop offset="1" stop-color="white"/>
</linearGradient>
<linearGradient id="paint46_linear" x1="1151.56" y1="235.709" x2="1080.16" y2="53.9049" gradientUnits="userSpaceOnUse">
<stop stop-color="white"/>
<stop offset="1" stop-color="white"/>
</linearGradient>
<linearGradient id="paint47_linear" x1="1181.84" y1="235.709" x2="1110.44" y2="53.9049" gradientUnits="userSpaceOnUse">
<stop stop-color="white"/>
<stop offset="1" stop-color="white"/>
</linearGradient>
<linearGradient id="paint48_linear" x1="1181.84" y1="235.709" x2="1110.44" y2="53.9049" gradientUnits="userSpaceOnUse">
<stop stop-color="white"/>
<stop offset="1" stop-color="white"/>
</linearGradient>
<linearGradient id="paint49_linear" x1="1212.12" y1="235.709" x2="1140.72" y2="53.9049" gradientUnits="userSpaceOnUse">
<stop stop-color="white"/>
<stop offset="1" stop-color="white"/>
</linearGradient>
<linearGradient id="paint50_linear" x1="1212.12" y1="235.709" x2="1140.72" y2="53.9049" gradientUnits="userSpaceOnUse">
<stop stop-color="white"/>
<stop offset="1" stop-color="white"/>
</linearGradient>
</defs>
</svg>
